<?xml version="1.0" encoding="UTF-8" standalone="no"?>
<svg
   xmlns:dc="http://purl.org/dc/elements/1.1/"
   xmlns:cc="http://creativecommons.org/ns#"
   xmlns:rdf="http://www.w3.org/1999/02/22-rdf-syntax-ns#"
   xmlns:svg="http://www.w3.org/2000/svg"
   xmlns="http://www.w3.org/2000/svg"
   xmlns:sodipodi="http://sodipodi.sourceforge.net/DTD/sodipodi-0.dtd"
   xmlns:inkscape="http://www.inkscape.org/namespaces/inkscape"
   viewBox="0 0 1024 1024"
   version="1.1"
   width="16"
   height="16"
   id="svg4"
   sodipodi:docname="stars.svg"
   inkscape:version="0.92.4 5da689c313, 2019-01-14">
  <metadata
     id="metadata10">
    <rdf:RDF>
      <cc:Work
         rdf:about="">
        <dc:format>image/svg+xml</dc:format>
        <dc:type
           rdf:resource="http://purl.org/dc/dcmitype/StillImage" />
      </cc:Work>
    </rdf:RDF>
  </metadata>
  <defs
     id="defs8" />
  <sodipodi:namedview
     pagecolor="#ffffff"
     bordercolor="#666666"
     borderopacity="1"
     objecttolerance="10"
     gridtolerance="10"
     guidetolerance="10"
     inkscape:pageopacity="0"
     inkscape:pageshadow="2"
     inkscape:window-width="1064"
     inkscape:window-height="735"
     id="namedview6"
     showgrid="false"
     inkscape:zoom="29.5"
     inkscape:cx="9.1474087"
     inkscape:cy="7.8084757"
     inkscape:window-x="488"
     inkscape:window-y="178"
     inkscape:window-maximized="0"
     inkscape:current-layer="svg4" />
  <path
     d="M 757.39087,486.83814 568.21799,459.22035 483.55951,287.37628 c -7.58135,-15.34322 -22.38305,-23.10509 -37.36525,-23.10509 -14.8017,0 -29.42288,7.58136 -37.00424,23.10509 l -84.65847,171.84407 -189.17288,27.61779 c -33.9356,4.87373 -47.654239,46.7517 -22.92458,70.75932 L 249.44002,691.17374 216.9485,879.9856 c -4.69322,26.89576 16.78729,48.55678 40.79491,48.55678 6.3178,0 12.99661,-1.44407 19.31441,-4.87373 l 169.31695,-89.17119 169.31695,89.17119 c 6.31779,3.24915 12.8161,4.87373 19.1339,4.87373 24.00762,0 45.48813,-21.48051 40.97542,-48.55678 L 643.49002,691.17374 780.49595,557.59746 c 24.54916,-24.00762 10.83051,-65.88559 -23.10508,-70.75932 z m -174.5517,142.42119 -32.67203,31.76949 7.76187,44.94661 16.96779,98.37712 -88.26864,-46.39068 -40.25339,-21.3 -40.4339,21.3 -88.26864,46.39068 16.96779,-98.37712 7.76187,-44.94661 -32.67204,-31.76949 -71.66186,-69.85678 98.91864,-14.44068 45.12712,-6.4983 20.21695,-40.79492 44.04407,-89.5322 44.04407,89.5322 20.21695,40.79492 45.12711,6.4983 98.91865,14.44068 z M 706.30697,293.15255 754.50273,196.94153 850.71375,148.74577 754.50273,100.55 706.30697,4.338983 658.11121,100.55 l -96.21102,48.19577 96.21102,48.19576 z m 259.9322,57.76271 -28.88135,-57.76271 -28.88136,57.76271 -57.76271,28.88136 57.76271,28.88135 28.88136,57.76271 28.88135,-57.76271 57.76273,-28.88135 z"
     id="path2"
     inkscape:connector-curvature="0"
     style="stroke-width:0.90254235" />
</svg>
