<svg class="icon" viewBox="0 0 1024 1024" xmlns="http://www.w3.org/2000/svg" width="200" height="200"><defs><style/></defs><path fill="currentColor" d="M298.9 778.339c-7.07 7.07-17.974 7.07-25.043 0L20.04 524.521c-7.07-7.07-7.07-17.974 0-25.043L273.857 245.66c7.07-7.07 17.975-7.07 25.044 0l27.242 27.242c7.07 7.07 7.07 17.975 0 25.044L112.09 512l214.053 214.053c7.07 7.07 7.07 17.975 0 25.044l-27.242 27.242zm145.973 94.76c-2.726 9.268-12.522 14.702-21.245 11.994l-33.767-9.269c-9.25-2.726-14.703-12.522-11.977-21.79l203.15-703.132c2.725-9.27 12.521-14.703 21.244-11.995l33.767 9.269c9.25 2.726 14.703 12.522 11.977 21.79L444.873 873.098zm307.176-94.76c-7.07 7.07-17.974 7.07-25.043 0l-27.243-27.242c-7.07-7.07-7.07-17.975 0-25.044L913.817 512 699.763 297.947c-7.07-7.07-7.07-17.975 0-25.044l27.243-27.242c7.07-7.07 17.974-7.07 25.043 0l253.818 253.818c7.07 7.07 7.07 17.974 0 25.043L752.049 778.34z"/></svg>