<svg class="icon" viewBox="0 0 1024 1024" xmlns="http://www.w3.org/2000/svg" width="16" height="16"><path fill="currentColor" d="M832 108.8c96 76.8 160 179.2 179.2 294.4 57.6 275.2-121.6 550.4-403.2 608-32 6.4-70.4 12.8-102.4 12.8-115.2 0-230.4-38.4-320-115.2-96-70.4-160-179.2-185.6-294.4 0-12.8 0-25.6 6.4-32 6.4-12.8 19.2-19.2 25.6-19.2h6.4c25.6 0 44.8 12.8 51.2 32 19.2 83.2 57.6 153.6 115.2 211.2 83.2 83.2 192 128 307.2 128 115.2 0 224-44.8 300.8-128 83.2-83.2 128-192 128-307.2 0-115.2-44.8-217.6-128-300.8-83.2-70.4-192-115.2-307.2-115.2S288 128 204.8 204.8l-6.4 6.4 25.6 25.6c19.2 19.2 19.2 25.6 12.8 38.4-6.4 0-19.2 6.4-25.6 6.4l-128 19.2c-6.4 0-19.2 0-25.6-6.4-6.4-6.4 0-12.8 0-19.2l12.8-128c6.4-12.8 6.4-25.6 19.2-25.6 6.4 0 19.2 12.8 19.2 12.8l25.6 25.6C204.8 89.6 300.8 38.4 396.8 19.2 435.2 6.4 473.6 0 505.6 0 627.2 0 742.4 38.4 832 108.8zM512 601.6H294.4c-19.2 0-38.4-19.2-38.4-38.4 0-25.6 19.2-44.8 38.4-44.8h172.8V268.8c0-19.2 19.2-38.4 38.4-38.4 25.6 0 38.4 19.2 38.4 44.8v288c6.4 19.2-12.8 38.4-32 38.4z"/></svg>
