<svg class="icon" viewBox="0 0 1024 1024" xmlns="http://www.w3.org/2000/svg" width="200" height="200"><defs><style/></defs><path fill="currentColor" d="M512 85.333c-234.667 0-426.667 192-426.667 426.667s192 426.667 426.667 426.667 426.667-192 426.667-426.667S746.667 85.333 512 85.333zm294.4 256H682.667c-12.8-55.466-34.134-102.4-59.734-153.6C699.733 217.6 768 268.8 806.4 341.333zM512 170.667c34.133 51.2 64 106.666 81.067 170.666H430.933C448 281.6 477.867 221.867 512 170.667zM183.467 597.333c-8.534-25.6-12.8-55.466-12.8-85.333s4.266-59.733 12.8-85.333h145.066c-4.266 29.866-4.266 55.466-4.266 85.333s4.266 55.467 4.266 85.333H183.467zm34.133 85.334h123.733c12.8 55.466 34.134 102.4 59.734 153.6C324.267 806.4 256 755.2 217.6 682.667zm123.733-341.334H217.6c42.667-72.533 106.667-123.733 183.467-153.6-25.6 51.2-46.934 98.134-59.734 153.6zm170.667 512c-34.133-51.2-64-106.666-81.067-170.666h162.134C576 742.4 546.133 802.133 512 853.333zm98.133-256H413.867c-4.267-29.866-8.534-55.466-8.534-85.333s4.267-55.467 8.534-85.333H614.4c4.267 29.866 8.533 55.466 8.533 85.333s-8.533 55.467-12.8 85.333zm12.8 238.934c25.6-46.934 46.934-98.134 59.734-153.6H806.4C768 755.2 699.733 806.4 622.933 836.267zm76.8-238.934C704 567.467 704 541.867 704 512s-4.267-55.467-4.267-85.333H844.8c8.533 25.6 12.8 55.466 12.8 85.333s-4.267 59.733-12.8 85.333H699.733z"/></svg>
